<?xml version="1.0" encoding="UTF-8" standalone="no"?>
<!-- Uploaded to: SVG Repo, www.svgrepo.com, Generator: SVG Repo Mixer Tools -->

<svg
   version="1.1"
   id="Layer_1"
   width="800"
   height="800"
   viewBox="0 0 100 100"
   enable-background="new 0 0 100 100"
   xml:space="preserve"
   xmlns="http://www.w3.org/2000/svg"
   xmlns:svg="http://www.w3.org/2000/svg"><defs
   id="defs8" />
<g
   id="g8"
   transform="translate(-1.1207971,-2.9887921)"
   style="fill:#ffffff">
	<g
   id="g1"
   style="fill:#ffffff">
		<path
   fill="#ffffff"
   stroke="#000000"
   stroke-width="4"
   stroke-miterlimit="10"
   d="m 76,89 c 0,2.2 -1.8,4 -4,4 H 28 c -2.2,0 -4,-1.8 -4,-4 v 0 c 0,-2.2 1.8,-4 4,-4 h 44 c 2.2,0 4,1.8 4,4 z"
   id="path1"
   style="fill:#ffffff" />
	</g>
	<path
   fill="#ffffff"
   stroke="#000000"
   stroke-width="4"
   stroke-miterlimit="10"
   d="M 71.86,47.477 C 68.391,55.789 64,66.297 64,79 H 36 L 34,57 c 7.18,0 13,-5.82 13,-13"
   id="path2"
   style="fill:#ffffff" />
	<g
   id="g3"
   style="fill:#ffffff">
		<path
   fill="#ffffff"
   stroke="#000000"
   stroke-width="4"
   stroke-miterlimit="10"
   d="m 71,82 c 0,1.65 -1.35,3 -3,3 H 32 c -1.65,0 -3,-1.35 -3,-3 v 0 c 0,-1.65 1.35,-3 3,-3 h 36 c 1.65,0 3,1.35 3,3 z"
   id="path3"
   style="fill:#ffffff" />
	</g>
	<line
   fill="#ffffff"
   stroke="#000000"
   stroke-width="4"
   stroke-miterlimit="10"
   x1="27"
   y1="45"
   x2="32"
   y2="41"
   id="line3"
   style="fill:#ffffff" />
	<line
   fill="#ffffff"
   stroke="#000000"
   stroke-width="4"
   stroke-miterlimit="10"
   x1="41"
   y1="24"
   x2="46"
   y2="21"
   id="line4"
   style="fill:#ffffff" />
	<line
   fill="#ffffff"
   stroke="#000000"
   stroke-width="4"
   stroke-miterlimit="10"
   x1="24"
   y1="39"
   x2="27"
   y2="37"
   id="line5"
   style="fill:#ffffff" />
	<path
   fill="#ffffff"
   stroke="#000000"
   stroke-width="4"
   stroke-miterlimit="10"
   d="M 52,20 V 10 c 13.255,0 24,10.745 24,24 0,13.255 -10.745,24 -24,24"
   id="path5"
   style="fill:#ffffff" />
	<path
   fill="#ffffff"
   stroke="#000000"
   stroke-width="4"
   stroke-miterlimit="10"
   d="m 20,38 c 0,-8.24 16,-14.169 16,-16 0,-3.866 3.134,-7 7,-7 h 9"
   id="path6"
   style="fill:#ffffff" />
	<path
   fill="#ffffff"
   stroke="#000000"
   stroke-width="4"
   stroke-miterlimit="10"
   d="m 20,38 c 0,3.866 3.134,7 7,7"
   id="path7"
   style="fill:#ffffff" />
	<path
   fill="#ffffff"
   stroke="#000000"
   stroke-width="4"
   stroke-miterlimit="10"
   d="m 28,45 c 0,2.209 1.791,4 4,4 2.209,0 4,-1.791 4,-4 l 7,-3 c 2.539,2.539 6.654,2.539 9.192,0 2.538,-2.539 2.539,-6.654 0,-9.192"
   id="path8"
   style="fill:#ffffff" />
</g>
<path
   style="fill:#ffffff;stroke-width:0.124533"
   d="m 36.737235,73.803721 c 0,-0.226655 -1.465123,-16.407561 -1.559255,-17.220504 l -0.07407,-0.639696 0.97233,-0.215594 c 5.878847,-1.303512 10.416885,-5.924056 11.564885,-11.775138 l 0.20913,-1.065892 0.870963,-0.224365 c 1.489814,-0.383785 2.518111,-0.996792 3.773795,-2.249706 0.887046,-0.885089 1.223322,-1.325835 1.58908,-2.082749 0.716266,-1.482275 0.895261,-2.297507 0.882919,-4.021236 -0.01226,-1.712266 -0.329319,-2.934802 -1.087777,-4.194337 -0.507116,-0.842144 -1.213816,-1.7156 -1.390603,-1.718734 -0.06961,-0.0012 -0.760129,0.633121 -1.534488,1.409684 l -1.407923,1.411927 0.322192,0.382903 c 1.032279,1.226795 1.314673,3.142951 0.668505,4.536098 -0.457782,0.986987 -1.223342,1.770043 -2.200629,2.250924 -0.735815,0.362064 -0.934321,0.404344 -1.88326,0.401124 -1.350767,-0.0046 -2.114686,-0.336078 -3.274295,-1.420835 -0.582321,-0.544733 -0.894193,-0.753621 -1.050745,-0.703779 -0.122447,0.03899 -2.239933,0.936201 -4.705525,1.993816 -4.969743,2.131771 -4.635271,1.899613 -4.657868,3.233024 -0.01561,0.921394 -0.329449,1.461476 -1.052692,1.811591 -0.652815,0.316023 -0.989671,0.320272 -1.64907,0.02081 -0.522626,-0.237352 -0.947546,-0.785519 -1.095283,-1.412966 -0.07789,-0.330802 -0.109189,-0.342693 -0.918862,-0.349109 l -0.838225,-0.0066 2.472429,-1.245758 c 2.262555,-1.140013 2.457228,-1.263659 2.293358,-1.456622 -0.140299,-0.165206 -2.13873,-2.67019 -2.292039,-2.873013 -0.01952,-0.02583 -1.031941,0.749858 -2.24982,1.723743 -2.496033,1.995972 -2.395631,1.96094 -3.737924,1.304217 -1.876251,-0.917964 -3.030066,-3.137525 -2.663941,-5.124552 0.555281,-3.013625 3.553784,-5.895923 10.797511,-10.37907 3.517805,-2.177171 4.395791,-2.862292 4.823738,-3.764122 0.106285,-0.223981 0.252348,-0.882101 0.324583,-1.46249 0.175948,-1.413671 0.652998,-2.37522 1.624773,-3.274913 1.319128,-1.221281 1.502572,-1.259887 6.197618,-1.304308 l 4.016189,-0.038 v 1.500785 1.500786 h 2.054795 2.054794 V 13.12215 9.1832749 l 0.778331,0.086553 c 2.205731,0.2452845 4.721189,1.0283351 7.004981,2.1806201 5.941413,2.99773 10.122549,8.361345 11.565065,14.835811 0.705634,3.167105 0.705634,6.27782 0,9.444924 C 70.482956,43.774 64.3219,50.167494 56.373284,52.232718 c -1.418963,0.368677 -3.648955,0.693811 -4.758637,0.693811 h -0.805182 v 2.054795 2.054795 l 0.902864,-10e-4 c 3.845066,-0.0044 8.786463,-1.418428 12.345634,-3.532938 0.540099,-0.320875 1.005441,-0.559966 1.034092,-0.531313 0.02865,0.02865 -0.14739,0.625197 -0.391204,1.325656 -1.362015,3.91297 -2.643235,9.077254 -3.243502,13.073772 -0.242618,1.615325 -0.560711,4.948307 -0.560711,5.875135 v 0.727197 H 48.816936 c -10.084864,0 -12.079701,-0.02789 -12.079701,-0.168882 z m -11.2043,-37.068945 c 0.8199,-0.549296 1.490726,-1.027116 1.490726,-1.06182 0,-0.0347 -0.505554,-0.818459 -1.123452,-1.741682 l -1.123454,-1.678585 -1.522872,1.014823 c -0.837582,0.558154 -1.534672,1.023247 -1.54909,1.033539 -0.03811,0.0272 2.233802,3.432449 2.290061,3.432449 0.02604,0 0.718182,-0.449426 1.538081,-0.998724 z M 43.454024,21.287679 c 1.374258,-0.826024 2.498653,-1.530755 2.498653,-1.566069 0,-0.148055 -1.68988,-2.903359 -1.782528,-2.906366 -0.102283,-0.0033 -4.81772,3.354856 -4.81772,3.431017 0,0.07558 1.510996,2.543278 1.557276,2.543278 0.02511,0 1.170059,-0.675837 2.544319,-1.50186 z"
   id="path9" /><path
   style="fill:#ffffff;stroke-width:0.124533"
   d="m 36.737235,73.803721 c 0,-0.226655 -1.465123,-16.407561 -1.559255,-17.220504 l -0.07407,-0.639696 0.97233,-0.215594 c 4.330468,-0.960191 7.99535,-3.736971 10.107528,-7.658188 0.585274,-1.086552 1.310562,-3.184076 1.517914,-4.389789 0.109675,-0.637741 0.19407,-0.841 0.34971,-0.842264 0.449117,-0.0037 2.321426,-0.751091 2.984856,-1.191584 2.688951,-1.785363 4.18195,-4.71785 3.964151,-7.786222 -0.129277,-1.821283 -0.837041,-3.596823 -1.985032,-4.979788 -0.220094,-0.265143 -0.457125,-0.483088 -0.526735,-0.484322 -0.06961,-0.0012 -0.760129,0.633121 -1.534488,1.409684 l -1.407924,1.411927 0.322193,0.382903 c 1.032279,1.226795 1.314672,3.142951 0.668505,4.536098 -0.457783,0.986987 -1.223343,1.770043 -2.200629,2.250924 -0.735815,0.362064 -0.934321,0.404344 -1.88326,0.401124 -1.35331,-0.0046 -2.114711,-0.3361 -3.283817,-1.429741 l -0.837637,-0.783568 -4.606091,1.971275 c -2.53335,1.0842 -4.668235,2.046151 -4.744189,2.13767 -0.07595,0.09152 -0.165235,0.571866 -0.198406,1.06744 -0.07392,1.104418 -0.345845,1.599706 -1.070985,1.950741 -0.652815,0.316023 -0.989671,0.320272 -1.64907,0.02081 -0.522626,-0.237352 -0.947546,-0.785519 -1.095284,-1.412967 -0.07792,-0.330922 -0.108887,-0.342658 -0.918861,-0.348193 l -0.838225,-0.0057 2.361593,-1.208469 c 1.298876,-0.664659 2.377411,-1.26451 2.396743,-1.333003 0.01933,-0.06849 -0.391072,-0.656911 -0.912015,-1.307596 -0.520941,-0.650685 -1.05202,-1.315354 -1.180175,-1.477042 l -0.23301,-0.293979 -2.211767,1.768656 c -2.497883,1.99745 -2.389996,1.960399 -3.758586,1.290809 -1.87836,-0.918995 -3.047403,-3.211381 -2.641034,-5.178825 0.404681,-1.959273 2.125727,-4.17687 4.932921,-6.356153 1.355865,-1.052586 3.391499,-2.426776 5.872913,-3.964612 2.618691,-1.622913 3.516668,-2.245689 4.116007,-2.854583 0.694324,-0.705395 0.867564,-1.105333 1.024305,-2.3647 0.175948,-1.413671 0.652998,-2.37522 1.624773,-3.274912 1.319128,-1.221281 1.502572,-1.259888 6.197618,-1.304309 l 4.016189,-0.038 v 1.500785 1.500787 h 2.054795 2.054794 V 13.122149 9.1832736 l 0.778331,0.087347 c 3.0801,0.3456591 7.005086,1.8554654 9.625105,3.7024444 4.612711,3.251725 7.740395,7.90681 8.944941,13.313192 0.484262,2.173509 0.645344,4.378188 0.465608,6.372525 -0.412558,4.577697 -2.02618,8.647362 -4.801946,12.110834 -3.794288,4.734339 -9.721849,7.794286 -15.728103,8.11922 l -1.400996,0.07579 v 2.035743 2.035745 h 0.876639 c 3.751291,0 8.572646,-1.345002 12.075238,-3.368603 0.706744,-0.408317 1.306998,-0.720383 1.333898,-0.693484 0.0269,0.0269 -0.153966,0.629645 -0.401925,1.339434 -1.180539,3.379326 -2.422823,8.258626 -3.045753,11.96275 -0.37616,2.236765 -0.750925,5.716547 -0.750925,6.972528 v 0.723863 H 48.816936 c -10.084864,0 -12.079701,-0.02789 -12.079701,-0.168881 z m -11.2043,-37.068945 c 0.8199,-0.549296 1.490726,-1.027116 1.490726,-1.06182 0,-0.0347 -0.505554,-0.818459 -1.123452,-1.741682 l -1.123454,-1.678585 -1.522872,1.014823 c -0.837582,0.558154 -1.534672,1.023247 -1.54909,1.033539 -0.03811,0.0272 2.233802,3.432449 2.290061,3.432449 0.02604,0 0.718182,-0.449426 1.538081,-0.998724 z M 43.454024,21.287679 c 1.374258,-0.826024 2.498653,-1.530755 2.498653,-1.566069 0,-0.140297 -1.687361,-2.903294 -1.774916,-2.906366 -0.09922,-0.0035 -4.825332,3.354779 -4.825332,3.42876 0,0.07709 1.510112,2.545535 1.557276,2.545535 0.02511,0 1.170059,-0.675836 2.544319,-1.50186 z"
   id="path10" /><path
   style="fill:#ffffff;stroke-width:0.124533"
   d="m 36.737235,73.803721 c 0,-0.226655 -1.465123,-16.407561 -1.559255,-17.220504 l -0.07407,-0.639696 0.97233,-0.215594 c 1.168264,-0.259038 2.448295,-0.706916 3.46299,-1.211687 2.065159,-1.027336 4.311583,-2.933768 5.590643,-4.74451 1.213884,-1.718473 2.226157,-4.117368 2.569571,-6.089393 0.141044,-0.809935 0.147881,-0.82025 0.598951,-0.903478 1.467717,-0.270815 3.330528,-1.366938 4.510025,-2.653803 0.83414,-0.910072 1.711677,-2.55745 2.003659,-3.76142 0.23459,-0.967316 0.20242,-3.11665 -0.06151,-4.109589 -0.308589,-1.160946 -0.996111,-2.478763 -1.697156,-3.253042 l -0.6064,-0.669748 -1.437224,1.425899 -1.437226,1.425898 0.314838,0.412774 c 1.034845,1.356751 1.292102,3.155134 0.649518,4.540555 -0.457783,0.986986 -1.223343,1.770042 -2.200629,2.250923 -0.735815,0.362064 -0.934321,0.404344 -1.88326,0.401124 -1.353547,-0.0046 -2.114714,-0.336102 -3.284714,-1.430581 l -0.838531,-0.784404 -4.477046,1.918756 c -2.462376,1.055316 -4.591566,2.004754 -4.731531,2.109862 -0.201864,0.151588 -0.26959,0.383339 -0.327542,1.120796 -0.08924,1.135677 -0.359173,1.629591 -1.081761,1.979388 -0.652815,0.316023 -0.989671,0.320272 -1.64907,0.02081 -0.522626,-0.237352 -0.947546,-0.785519 -1.095284,-1.412966 -0.078,-0.331255 -0.108076,-0.342574 -0.918861,-0.345729 l -0.838225,-0.0033 2.29665,-1.178817 c 1.263158,-0.64835 2.349601,-1.231769 2.414318,-1.296485 0.07387,-0.07387 -0.271114,-0.610479 -0.926788,-1.441601 -0.57445,-0.728163 -1.109277,-1.407737 -1.188506,-1.510164 -0.121444,-0.157003 -0.49194,0.09054 -2.36068,1.577276 -2.50418,1.992279 -2.398539,1.956314 -3.772211,1.284238 -1.87836,-0.918995 -3.047403,-3.211382 -2.641034,-5.178825 0.298995,-1.44759 1.336342,-3.070365 2.988359,-4.674838 1.675705,-1.62748 3.838907,-3.17364 8.585963,-6.136861 2.435347,-1.5202 3.621345,-2.476354 4.005398,-3.22916 0.130842,-0.256471 0.296365,-0.936139 0.36783,-1.510375 0.174435,-1.401644 0.654432,-2.366664 1.623369,-3.263726 1.319128,-1.221282 1.502572,-1.259888 6.197618,-1.304309 l 4.016189,-0.038 v 1.500785 1.500786 h 2.054795 2.054794 v -3.93884 -3.9388749 l 0.778331,0.086099 c 2.068305,0.2287966 4.471955,0.9496689 6.654511,1.9957349 6.098773,2.923049 10.439154,8.39469 11.915535,15.02115 1.08653,4.876684 0.495157,9.793656 -1.728757,14.37377 -2.944901,6.064966 -8.681146,10.489693 -15.349238,11.839829 -0.848326,0.171766 -2.182542,0.346609 -2.964927,0.388537 l -1.422515,0.07624 v 2.05467 2.05467 l 1.525529,-0.07499 c 3.912353,-0.192329 8.087492,-1.418663 11.497551,-3.377094 0.667467,-0.383333 1.236227,-0.674319 1.263911,-0.646635 0.02768,0.02768 -0.117455,0.525714 -0.32253,1.106734 -2.023589,5.73326 -3.548707,13.034241 -3.832787,18.348165 l -0.08246,1.54246 H 48.797957 c -10.068888,0 -12.060722,-0.02789 -12.060722,-0.168882 z m -11.2043,-37.068945 c 0.8199,-0.549296 1.490726,-1.027116 1.490726,-1.06182 0,-0.0347 -0.505554,-0.818459 -1.123452,-1.741682 l -1.123454,-1.678585 -1.49174,0.999402 c -0.820456,0.549672 -1.49174,1.054691 -1.49174,1.122268 0,0.126718 2.119305,3.359141 2.202388,3.359141 0.0256,0 0.717373,-0.449426 1.537272,-0.998724 z m 17.832293,-15.39178 c 1.320357,-0.795599 2.449126,-1.491335 2.508373,-1.54608 0.100761,-0.0931 -1.422682,-2.773314 -1.659585,-2.919727 -0.08577,-0.05301 -4.37016,2.897968 -4.775386,3.28916 -0.08721,0.08418 1.341116,2.62319 1.475679,2.62319 0.02765,0 1.13056,-0.650944 2.450919,-1.446543 z"
   id="path11" /><path
   style="fill:#ffffff;stroke-width:0.124533"
   d="m 36.736615,73.816936 c -3.75e-4,-0.08562 -0.362477,-4.1325 -0.804747,-8.993075 -0.845032,-9.286956 -0.837893,-9.026746 -0.247779,-9.03117 0.538933,-0.004 2.540186,-0.671384 3.730606,-1.244021 2.689955,-1.293973 4.947575,-3.381789 6.483188,-5.995563 0.702932,-1.196466 1.464897,-3.215256 1.738979,-4.607343 l 0.211243,-1.072918 0.659902,-0.14768 c 0.978302,-0.218934 2.513372,-1.007349 3.403263,-1.747925 1.351524,-1.124747 2.484402,-2.930506 2.894441,-4.613605 0.235245,-0.96562 0.201444,-3.115405 -0.06455,-4.10512 -0.309587,-1.151925 -1.024448,-2.52539 -1.706175,-3.278077 l -0.58798,-0.649182 -1.435227,1.423907 -1.435227,1.423905 0.411709,0.568622 c 0.62839,0.867886 0.884277,1.668519 0.878263,2.74795 -0.0093,1.671604 -0.945846,3.112051 -2.530241,3.891665 -0.735815,0.362064 -0.934321,0.404344 -1.88326,0.401124 -1.33893,-0.0045 -2.079697,-0.323396 -3.27369,-1.409106 -0.463694,-0.421642 -0.866769,-0.766622 -0.89572,-0.766622 -0.101922,0 -8.193039,3.498673 -8.785967,3.799132 l -0.60045,0.304272 -0.07888,0.84369 c -0.04338,0.46403 -0.104014,0.96545 -0.134734,1.114269 -0.08433,0.408521 -0.754766,1.012529 -1.307809,1.178224 -0.984039,0.294826 -2.081716,-0.354603 -2.362625,-1.397819 l -0.131095,-0.486849 -0.835797,-0.0061 -0.835798,-0.0061 0.87173,-0.442063 c 0.479453,-0.243137 1.561483,-0.805636 2.40451,-1.25 l 1.53278,-0.807935 -0.216301,-0.331672 c -0.432036,-0.66248 -2.070088,-2.635532 -2.188049,-2.635532 -0.06659,0 -1.081559,0.761864 -2.255492,1.693029 -2.411328,1.912666 -2.32034,1.882693 -3.686395,1.214345 -1.87836,-0.918995 -3.047403,-3.211382 -2.641034,-5.178825 0.588499,-2.84923 3.428197,-5.686686 9.515064,-9.507549 4.750342,-2.981895 5.744065,-3.736884 6.104638,-4.638046 0.104838,-0.262014 0.251965,-0.917494 0.32695,-1.456623 0.07499,-0.539129 0.271537,-1.275544 0.436778,-1.636479 0.357782,-0.7815 1.285775,-1.809435 2.024161,-2.242157 1.019476,-0.597453 1.554184,-0.660565 5.610013,-0.662156 l 3.767122,-0.0015 v 1.494396 1.494396 h 2.054795 2.054794 V 13.138231 9.2154421 h 0.389086 c 0.661784,0 3.377118,0.5968568 4.542614,0.9985109 1.612802,0.555805 4.427844,1.991454 5.691416,2.902578 5.36915,3.87153 8.619883,9.619193 9.194949,16.257703 0.238496,2.753172 -0.143868,5.786177 -1.083575,8.595199 -2.681598,8.015973 -9.762224,13.773483 -18.233091,14.825978 -0.580395,0.07211 -1.406983,0.131114 -1.836862,0.131114 h -0.781597 v 2.074012 2.074013 l 1.525529,-0.07779 c 4.150026,-0.211622 8.317586,-1.488256 12.032523,-3.685877 0.367889,-0.217629 0.691333,-0.373244 0.718767,-0.34581 0.02743,0.02743 -0.261862,0.991571 -0.642877,2.14253 -1.27741,3.858761 -2.35575,8.276841 -2.921885,11.971276 -0.282727,1.845012 -0.624885,5.255594 -0.624885,6.228793 v 0.66493 H 48.816936 c -9.580409,0 -12.079829,-0.03221 -12.080321,-0.155666 z M 25.537744,36.726394 c 0.817255,-0.553909 1.485917,-1.031728 1.485917,-1.06182 0,-0.03009 -0.505554,-0.810077 -1.123452,-1.7333 l -1.123454,-1.678585 -1.49174,0.999402 c -0.820456,0.549672 -1.49174,1.054692 -1.49174,1.122268 0,0.131367 2.120877,3.359141 2.207196,3.359141 0.02824,0 0.720018,-0.453199 1.537273,-1.007106 z m 18.143702,-15.591097 2.274222,-1.367533 -0.457289,-0.824107 c -0.843628,-1.520346 -1.285727,-2.148198 -1.44709,-2.055107 -0.57438,0.33136 -4.687697,3.330159 -4.654818,3.393579 0.02253,0.04346 0.3631,0.624687 0.756824,1.29162 0.668829,1.132931 0.733539,1.203287 0.984894,1.070842 0.14797,-0.07797 1.292433,-0.757148 2.543257,-1.509294 z"
   id="path12" /><path
   style="fill:#ffffff;stroke-width:0.124533"
   d="m 36.737235,73.867 c 0,-0.05808 -0.364446,-4.103536 -0.809883,-8.9899 -0.842508,-9.242177 -0.837066,-9.079174 -0.303235,-9.084409 0.385634,-0.0038 2.066595,-0.495819 2.981113,-0.872607 4.660225,-1.92005 8.164325,-6.250523 9.085805,-11.228509 0.151382,-0.817789 0.159591,-0.830109 0.608544,-0.913351 0.784514,-0.145455 2.211497,-0.803395 3.108082,-1.433044 1.491541,-1.047468 2.642739,-2.629667 3.216799,-4.421145 0.402188,-1.255119 0.453671,-3.379931 0.113151,-4.669988 -0.282797,-1.071378 -1.095422,-2.614416 -1.758428,-3.338967 l -0.534232,-0.583823 -1.430877,1.420595 -1.430879,1.420595 0.486513,0.696467 c 1.59093,2.277498 0.793858,5.274823 -1.733422,6.518392 -0.735815,0.362064 -0.934321,0.404344 -1.88326,0.401124 -1.33893,-0.0045 -2.079697,-0.323396 -3.27369,-1.409106 -0.463693,-0.421642 -0.864912,-0.766622 -0.891597,-0.766622 -0.09296,0 -8.356298,3.575799 -8.870853,3.838689 l -0.518355,0.26483 -0.08715,0.968166 c -0.105805,1.175365 -0.373321,1.666334 -1.099478,2.01786 -0.652815,0.316023 -0.989671,0.320272 -1.64907,0.02081 -0.52161,-0.23689 -0.957236,-0.79007 -1.112701,-1.412966 -0.08245,-0.330354 -0.114725,-0.34254 -0.912571,-0.344555 l -0.827098,-0.0021 2.30386,-1.194963 c 1.267124,-0.65723 2.349245,-1.236856 2.404717,-1.288057 0.08841,-0.08161 -1.418769,-2.149455 -2.036404,-2.79393 -0.281073,-0.293289 -0.155896,-0.369489 -2.734001,1.664307 -2.180927,1.720472 -2.127235,1.704332 -3.475389,1.04474 -1.878049,-0.918842 -3.047396,-3.211407 -2.641173,-5.178151 0.393655,-1.905889 1.892029,-3.910054 4.498705,-6.017289 1.483365,-1.199152 2.852447,-2.14391 5.85154,-4.037951 3.362304,-2.123424 4.18958,-2.703829 4.728083,-3.317149 0.538032,-0.612785 0.701835,-1.032485 0.867317,-2.222256 0.07562,-0.543665 0.272683,-1.28379 0.437924,-1.644725 0.357783,-0.7815 1.285775,-1.809435 2.024161,-2.242157 1.019477,-0.597453 1.554184,-0.660565 5.610013,-0.662157 l 3.767122,-0.0015 v 1.494397 1.494396 h 2.054795 2.054794 v -3.940534 -3.94053 l 0.739114,0.077253 c 2.201624,0.2301154 4.5871,0.975053 7.044199,2.199768 5.942641,2.962045 10.102582,8.299139 11.570665,14.844852 1.697492,7.568567 -0.808629,15.53205 -6.553678,20.825056 -2.80856,2.587571 -6.713477,4.61273 -10.30964,5.346762 -1.287422,0.262783 -2.89341,0.452873 -3.826122,0.452873 h -0.781598 v 2.054795 2.054795 h 0.814371 c 3.8365,0 8.87916,-1.462499 12.637468,-3.665181 0.426815,-0.250149 0.799006,-0.431837 0.827092,-0.40375 0.02809,0.02809 -0.207352,0.828996 -0.523198,1.7798 -1.318825,3.970111 -2.579305,9.121975 -3.099043,12.666487 -0.248576,1.69524 -0.569517,5.016809 -0.569517,5.894201 v 0.66493 H 48.816936 c -6.643835,0 -12.079701,-0.04752 -12.079701,-0.105602 z M 25.931874,36.453845 c 1.266258,-0.858329 1.28618,-0.551215 -0.177681,-2.739341 l -0.980803,-1.466068 -1.490057,1.009911 c -0.819532,0.555453 -1.490058,1.058002 -1.490058,1.116778 0,0.05877 0.486064,0.837014 1.080143,1.729419 l 1.080142,1.622556 0.445386,-0.268035 c 0.244964,-0.147419 0.93478,-0.599767 1.532928,-1.00522 z M 43.49485,21.233136 45.956077,19.764644 45.584578,19.106383 c -0.783528,-1.388336 -1.351886,-2.23097 -1.484758,-2.201273 -0.301991,0.0675 -4.618485,3.217777 -4.620599,3.372224 -0.003,0.219152 1.373922,2.52117 1.475417,2.466692 0.04344,-0.02332 1.186537,-0.703219 2.540212,-1.51089 z"
   id="path13" /><path
   style="fill:#ffffff;stroke-width:0.124533"
   d="m 36.736245,73.879203 c -5e-4,-0.05137 -0.364314,-4.096069 -0.808376,-8.98822 -0.44406,-4.892152 -0.789927,-8.912279 -0.76859,-8.933617 0.02134,-0.02134 0.579605,-0.175982 1.240596,-0.343656 2.4242,-0.614949 4.492552,-1.680207 6.2728,-3.230664 2.598315,-2.26293 4.241324,-5.072055 4.967256,-8.492742 l 0.213034,-1.003841 1.073519,-0.329672 c 2.585082,-0.793865 4.570132,-2.671977 5.575788,-5.275421 0.2736,-0.708294 0.340493,-1.118791 0.388819,-2.386077 0.03507,-0.919742 -6.25e-4,-1.839215 -0.08938,-2.30386 C 54.604484,31.559206 53.69875,29.724 53.006484,28.953923 l -0.559749,-0.622665 -1.425675,1.414517 -1.425676,1.414518 0.48033,0.702542 c 1.578242,2.30838 0.785451,5.282084 -1.739429,6.524471 -0.735815,0.362064 -0.934321,0.404344 -1.88326,0.401124 -1.341351,-0.0045 -2.079656,-0.32337 -3.28328,-1.417797 -0.468969,-0.426423 -0.917287,-0.749289 -0.996264,-0.717482 -0.846963,0.341105 -8.449888,3.642155 -8.800367,3.820958 -0.463273,0.236344 -0.466723,0.24385 -0.555214,1.208132 -0.05588,0.608917 -0.179216,1.117765 -0.331145,1.366209 -0.268351,0.438821 -1.122535,0.9117 -1.646851,0.9117 -0.801783,0 -1.666358,-0.754907 -1.889775,-1.650062 -0.08241,-0.330204 -0.11509,-0.34258 -0.912571,-0.345643 l -0.827098,-0.0032 2.366126,-1.239262 c 1.362645,-0.713687 2.349494,-1.303593 2.326908,-1.390948 -0.04411,-0.170596 -1.997978,-2.692781 -2.166899,-2.79718 -0.148076,-0.09152 -0.369707,0.06435 -2.566337,1.80478 -1.365045,1.081553 -2.003097,1.511875 -2.241594,1.511805 -0.460428,-1.25e-4 -1.725551,-0.627855 -2.325925,-1.154059 -1.079765,-0.946372 -1.778129,-2.712626 -1.635574,-4.136582 0.05342,-0.533615 0.235825,-1.071531 0.634075,-1.869909 1.281833,-2.569717 3.716513,-4.701506 9.627369,-8.429665 5.235134,-3.301959 5.386414,-3.447255 5.711942,-5.48604 0.101237,-0.634034 0.317144,-1.445207 0.479795,-1.802609 0.352529,-0.774626 1.281839,-1.803465 2.019454,-2.235735 1.019476,-0.597452 1.554184,-0.660565 5.610013,-0.662156 l 3.767122,-0.0015 v 1.494396 1.494397 h 2.054795 2.054794 v -3.940537 -3.94053 l 0.739114,0.077253 c 2.201624,0.2301154 4.5871,0.975053 7.044198,2.199768 10.768034,5.36721 15.149042,18.362097 9.845319,29.203043 -3.253699,6.650643 -9.690476,11.211379 -17.127232,12.135386 -0.580395,0.07211 -1.406983,0.131114 -1.836862,0.131114 h -0.781597 v 2.054795 2.054795 h 0.779094 c 2.261621,0 5.975073,-0.73463 8.498613,-1.681276 1.349254,-0.506139 3.061664,-1.32749 4.210293,-2.019447 0.397851,-0.239675 0.752372,-0.406766 0.787825,-0.371315 0.03545,0.03545 -0.299133,1.176313 -0.743523,2.535247 -1.81633,5.554305 -2.95786,11.162136 -3.348481,16.449617 l -0.1495,2.023661 H 48.79051 c -6.629301,0 -12.05372,-0.04203 -12.054265,-0.0934 z M 25.759681,36.550436 c 0.624548,-0.410959 1.136419,-0.831592 1.137494,-0.934737 0.0011,-0.103148 -0.476322,-0.903647 -1.060881,-1.778888 l -1.062835,-1.591346 -1.49534,1.021597 c -1.111703,0.759502 -1.476021,1.072112 -1.420035,1.218488 0.04142,0.10829 0.529989,0.882632 1.085712,1.720762 l 1.010406,1.523872 0.33497,-0.216275 c 0.184234,-0.118952 0.845963,-0.552514 1.470509,-0.963473 z m 17.77098,-15.332445 c 2.264273,-1.356787 2.406369,-1.463557 2.278888,-1.712329 -0.443034,-0.86455 -1.550654,-2.569173 -1.669383,-2.569173 -0.27773,0 -4.663205,3.156812 -4.663205,3.356733 0,0.30199 1.320213,2.371784 1.512839,2.371784 0.06931,0 1.212695,-0.651157 2.540861,-1.447015 z"
   id="path14" /><path
   style="fill:#ffffff;stroke-width:0.124533"
   d="m 36.737235,73.926186 c 0,-0.02553 -0.363549,-4.070447 -0.807888,-8.988707 -0.444338,-4.918262 -0.786276,-8.963904 -0.759863,-8.990317 0.02641,-0.02641 0.403973,-0.129832 0.83902,-0.22982 2.839002,-0.652488 5.135123,-1.87933 7.188422,-3.840848 2.297249,-2.194567 3.796309,-4.896226 4.436511,-7.995643 0.110425,-0.53461 0.211738,-0.979717 0.225138,-0.98913 0.0134,-0.0094 0.444663,-0.14111 0.958361,-0.29266 2.544993,-0.750816 4.642922,-2.694076 5.648669,-5.232224 0.330223,-0.833361 0.379019,-1.126683 0.426834,-2.565685 0.04067,-1.224078 0.0046,-1.822935 -0.146156,-2.428393 -0.26998,-1.08408 -1.084047,-2.676105 -1.752165,-3.426617 l -0.547382,-0.614885 -1.425675,1.414518 -1.425676,1.414517 0.48033,0.702543 c 1.578243,2.30838 0.785451,5.282084 -1.739429,6.524471 -0.735815,0.362064 -0.934321,0.404344 -1.88326,0.401124 -1.331657,-0.0045 -2.060228,-0.317603 -3.294603,-1.415766 -0.475199,-0.422759 -0.923518,-0.744647 -0.996264,-0.715305 -0.40259,0.162371 -6.683515,2.88191 -7.786618,3.371477 -0.716737,0.318096 -1.340602,0.638939 -1.386363,0.712981 -0.04576,0.07404 -0.12229,0.534249 -0.170065,1.02268 -0.106357,1.087337 -0.395377,1.593157 -1.107212,1.93775 -1.070788,0.51836 -2.022761,0.155155 -2.593383,-0.98945 l -0.340453,-0.68291 -0.749525,-0.06227 -0.749525,-0.06227 2.082784,-1.083213 c 1.145531,-0.595767 2.19175,-1.163381 2.324931,-1.261365 0.236185,-0.173767 0.236514,-0.186957 0.01334,-0.535717 -0.366647,-0.572979 -1.968929,-2.536891 -2.069754,-2.536891 -0.05059,0 -1.055467,0.756538 -2.233061,1.681196 -1.526606,1.198705 -2.235917,1.681166 -2.471536,1.681097 -0.457878,-1.24e-4 -1.724194,-0.629242 -2.322984,-1.154058 -1.079765,-0.946373 -1.778129,-2.712626 -1.635574,-4.136583 0.102838,-1.027225 0.962075,-2.725251 1.973495,-3.900022 1.657458,-1.925153 3.747394,-3.529077 8.673377,-6.656397 4.753955,-3.018107 4.982372,-3.241577 5.314018,-5.198918 0.11025,-0.650685 0.333545,-1.477422 0.49621,-1.837192 0.420854,-0.93081 1.427797,-1.945273 2.412089,-2.430103 l 0.81754,-0.402693 4.081521,-0.03885 4.08152,-0.03885 v 1.502111 1.50211 h 2.054795 2.054794 v -3.94053 -3.94053 l 0.739114,0.077253 c 2.201624,0.2301154 4.5871,0.975053 7.044199,2.199768 4.335375,2.160922 7.727962,5.572499 9.845318,9.900428 3.006929,6.14624 3.006929,13.156375 0,19.302615 -3.257375,6.658156 -9.682073,11.210335 -17.127232,12.135386 -0.580395,0.07211 -1.406983,0.131114 -1.836861,0.131114 H 50.80946 v 2.073934 2.073931 l 1.467371,-0.0789 c 4.101102,-0.220515 8.244482,-1.473093 11.898428,-3.596997 0.467627,-0.271815 0.878109,-0.466333 0.912179,-0.432264 0.03407,0.03407 -0.28314,1.117841 -0.704912,2.40838 -1.836842,5.6204 -2.983676,11.233744 -3.386215,16.574331 l -0.15253,2.023662 H 48.79051 c -6.629301,0 -12.053275,-0.02089 -12.053275,-0.04642 z m -11.2324,-37.218682 c 0.705741,-0.47111 1.31281,-0.933814 1.34904,-1.028229 0.03623,-0.09442 -0.415039,-0.9065 -1.002823,-1.804634 l -1.068696,-1.632967 -1.214341,0.83464 c -0.667888,0.459051 -1.339155,0.952185 -1.491705,1.095851 l -0.277365,0.26121 1.079254,1.642851 c 0.61156,0.930924 1.136502,1.609267 1.211361,1.565348 0.07266,-0.04263 0.709534,-0.46296 1.415275,-0.93407 z M 43.415683,21.278932 c 1.269502,-0.762339 2.336567,-1.460033 2.371256,-1.55043 0.0693,-0.180598 -1.187523,-2.39532 -1.512248,-2.664817 -0.176383,-0.146386 -0.351712,-0.0653 -1.348308,0.623561 -1.917998,1.325747 -3.449422,2.48271 -3.449422,2.605977 0,0.297396 1.319507,2.371783 1.508679,2.371783 0.06702,0 1.160539,-0.623733 2.430043,-1.386074 z"
   id="path15" /><path
   style="fill:#ffffff;stroke-width:0.124533"
   d="m 36.689466,73.318805 c -0.192245,-1.643699 -1.570262,-17.321363 -1.526352,-17.365273 0.02719,-0.02719 0.494911,-0.15584 1.039372,-0.285881 5.278635,-1.260767 9.507504,-5.220214 11.04107,-10.337639 0.174469,-0.582191 0.377886,-1.372181 0.452038,-1.755532 l 0.134822,-0.697001 0.773459,-0.214723 c 2.37817,-0.660211 4.28,-2.213825 5.443242,-4.446609 0.721624,-1.385122 0.909969,-2.333293 0.837993,-4.218638 -0.04994,-1.308243 -0.114741,-1.703008 -0.406023,-2.473695 -0.359313,-0.950693 -1.311572,-2.514755 -1.787712,-2.936278 l -0.273191,-0.241854 -1.364758,1.360527 c -0.750617,0.748291 -1.364759,1.404375 -1.364759,1.457966 0,0.05359 0.194162,0.390787 0.43147,0.749322 1.521609,2.298913 0.709252,5.247058 -1.783851,6.473809 -0.735815,0.362064 -0.934321,0.404344 -1.88326,0.401124 -1.32119,-0.0045 -2.044586,-0.312661 -3.291304,-1.402141 -0.70071,-0.612335 -0.909041,-0.733228 -1.120797,-0.650388 -1.997389,0.781389 -8.715806,3.744209 -8.930701,3.938436 -0.130738,0.118163 -0.233433,0.500595 -0.290165,1.080554 -0.107363,1.097544 -0.394305,1.601786 -1.108158,1.947356 -1.070789,0.51836 -2.022761,0.155155 -2.593384,-0.98945 l -0.340452,-0.68291 -0.742823,-0.06227 -0.742822,-0.06227 2.262881,-1.190718 c 1.605439,-0.844775 2.258085,-1.250431 2.246375,-1.396248 -0.017,-0.211748 -2.00837,-2.83022 -2.1524,-2.83022 -0.04433,0 -1.053605,0.756538 -2.242832,1.681196 -1.518393,1.180593 -2.258847,1.680832 -2.486703,1.679979 -0.428932,-0.0016 -1.535771,-0.524249 -2.164029,-1.021839 -0.684107,-0.541823 -1.385411,-1.665723 -1.650513,-2.645094 -0.309798,-1.144482 -0.191612,-2.093386 0.41948,-3.367965 1.268513,-2.645793 3.752895,-4.809926 10.17251,-8.861225 4.538778,-2.864337 4.890816,-3.216021 5.239221,-5.233947 0.104252,-0.60382 0.323214,-1.392211 0.48658,-1.751981 0.423184,-0.931943 1.429977,-1.945719 2.413365,-2.430104 l 0.81754,-0.402693 4.081521,-0.03885 4.08152,-0.03885 v 1.502111 1.50211 h 2.054795 2.054794 v -3.93888 -3.9388809 l 0.869435,0.085672 c 2.079265,0.2048856 4.81561,1.0872579 7.22521,2.3298679 5.019296,2.588409 8.835004,7.054887 10.642656,12.457757 2.09249,6.254227 1.29479,12.975128 -2.207146,18.595995 -2.930127,4.703072 -7.83723,8.2691 -13.269877,9.643321 -1.323347,0.334748 -3.430284,0.630652 -4.490457,0.630652 h -0.886881 v 2.054795 2.054795 l 0.778331,-0.0039 c 0.428082,-0.0021 1.422789,-0.08174 2.21046,-0.176906 3.573055,-0.431675 6.812624,-1.475894 9.892745,-3.188757 0.7411,-0.412127 1.374044,-0.722734 1.40654,-0.690237 0.0325,0.0325 -0.197063,0.833153 -0.510136,1.779235 -2.05506,6.210259 -3.292665,12.283055 -3.643507,17.878308 l -0.08394,1.33873 H 48.812944 36.765934 Z M 25.461535,36.740901 c 0.711606,-0.477435 1.330624,-0.927599 1.375594,-1.000363 0.09218,-0.149149 -0.05944,-0.423357 -1.187553,-2.14776 -0.436883,-0.667809 -0.840687,-1.214198 -0.89734,-1.214198 -0.143582,0 -2.618076,1.669574 -2.800788,1.889729 -0.121419,0.1463 0.0477,0.474799 0.906243,1.760261 0.580537,0.869219 1.112782,1.580396 1.182768,1.580396 0.06999,0 0.70947,-0.390628 1.421076,-0.868065 z M 43.410733,21.27527 c 1.273771,-0.764356 2.343996,-1.462829 2.378276,-1.552161 0.06571,-0.171245 -1.213289,-2.409593 -1.524379,-2.667774 -0.146499,-0.121584 -0.284036,-0.08322 -0.710085,0.198059 -0.61476,0.405871 -3.37936,2.405428 -3.812249,2.757295 l -0.295065,0.239837 0.279078,0.547037 c 0.391236,0.766887 1.135056,1.867443 1.262127,1.867443 0.05849,0 1.148524,-0.625381 2.422297,-1.389736 z"
   id="path16" /><path
   style="fill:#ffffff;stroke-width:0.124533"
   d="m 36.685914,73.381071 c -0.04108,-0.325342 -0.41163,-4.370276 -0.823443,-8.988742 -0.780004,-8.747699 -0.775712,-8.594328 -0.240649,-8.599638 0.454619,-0.0045 2.512517,-0.685931 3.554533,-1.176995 4.442181,-2.093428 7.572987,-6.153937 8.521466,-11.051942 0.126857,-0.655095 0.166622,-0.713934 0.534682,-0.791156 1.49589,-0.313845 3.201888,-1.319119 4.426573,-2.608394 1.056995,-1.112741 1.91497,-2.751264 2.14461,-4.095685 0.211043,-1.235536 0.09117,-3.312495 -0.248896,-4.312604 -0.321799,-0.946374 -1.049045,-2.220259 -1.67072,-2.926525 l -0.438469,-0.498132 -1.378466,1.36774 c -0.758158,0.752256 -1.378468,1.411586 -1.378468,1.465177 0,0.05359 0.192335,0.390788 0.427412,0.749323 1.527742,2.330093 0.727758,5.239947 -1.779793,6.473808 -0.735815,0.362064 -0.934321,0.404344 -1.88326,0.401124 -1.307167,-0.0044 -2.04667,-0.313551 -3.2308,-1.350479 -0.440102,-0.385393 -0.891878,-0.700716 -1.003946,-0.700716 -0.159352,0 -4.909001,2.00696 -8.533866,3.605978 -0.681304,0.30054 -0.761302,0.433918 -0.859424,1.432903 -0.105913,1.078287 -0.403163,1.582462 -1.144591,1.941382 -1.066985,0.516518 -2.036007,0.119941 -2.595203,-1.0621 l -0.319767,-0.675935 -0.757157,-0.03705 -0.757155,-0.03705 2.119783,-1.101157 c 2.788704,-1.44864 2.64394,-1.330993 2.271874,-1.846325 -0.532677,-0.737783 -1.939725,-2.469518 -2.006582,-2.469613 -0.03571,-5e-5 -1.037033,0.756448 -2.225163,1.681105 -1.523904,1.185973 -2.256784,1.681166 -2.487999,1.681098 -0.455543,-1.25e-4 -1.722956,-0.63052 -2.32029,-1.154059 -0.64285,-0.563433 -1.275556,-1.623005 -1.517261,-2.540905 -0.286425,-1.087724 -0.152435,-2.111985 0.43666,-3.33797 1.227833,-2.555284 3.703665,-4.761685 9.399411,-8.376526 5.491521,-3.48523 5.655619,-3.641208 6.013919,-5.716332 0.104768,-0.606788 0.324155,-1.397608 0.487521,-1.757378 0.423184,-0.931943 1.429977,-1.945719 2.413365,-2.430104 l 0.81754,-0.402693 4.081521,-0.03885 4.08152,-0.03885 v 1.502111 1.50211 h 2.054795 2.054794 v -3.93888 -3.9388809 l 0.869435,0.085672 c 2.956356,0.2913119 6.994126,1.8933269 9.840404,3.9042529 1.514069,1.069706 4.057311,3.611544 5.136004,5.133166 1.737101,2.450388 3.177681,5.907331 3.727249,8.944246 0.371644,2.053695 0.371644,5.462545 0,7.516239 -0.549568,3.036916 -1.990148,6.49386 -3.727249,8.944248 -1.078155,1.520862 -3.621192,4.062773 -5.136004,5.133732 -2.147689,1.518393 -4.951915,2.815615 -7.484246,3.462176 -1.312855,0.335202 -3.321267,0.614425 -4.439789,0.617252 l -0.902864,0.0023 v 2.054795 2.054795 h 0.60947 c 1.058685,0 3.135061,-0.249255 4.683183,-0.562184 2.600112,-0.525573 5.297592,-1.531476 7.689243,-2.86736 0.683344,-0.381689 1.268983,-0.66744 1.30142,-0.635004 0.03244,0.03244 -0.23199,0.946221 -0.587615,2.030629 -1.896651,5.783462 -3.106653,11.630241 -3.49782,16.901611 l -0.153517,2.068795 H 48.807217 36.760607 Z M 25.529265,36.689492 c 0.855915,-0.595713 1.301231,-0.98359 1.28917,-1.122883 -0.02444,-0.282235 -1.938826,-3.183915 -2.098634,-3.180948 -0.234457,0.0044 -2.739221,1.813735 -2.776135,2.005414 -0.04773,0.247846 1.913209,3.219371 2.120421,3.213195 0.08667,-0.0026 0.746,-0.414234 1.465178,-0.914778 z M 43.225271,21.367416 c 2.974126,-1.780886 2.71679,-1.504875 2.238935,-2.401421 -0.65036,-1.2202 -1.189569,-1.968404 -1.406486,-1.95163 -0.17604,0.01361 -3.258578,2.150514 -4.253969,2.94897 l -0.358142,0.287285 0.221031,0.428861 c 0.373499,0.724695 1.197151,1.985525 1.297069,1.985525 0.05201,0 1.06971,-0.583915 2.261562,-1.29759 z"
   id="path17" /><path
   style="fill:#ffffff;stroke-width:0.124533"
   d="m 36.685445,73.381071 c -0.04134,-0.325342 -0.382355,-4.066002 -0.75781,-8.312577 -0.375456,-4.246577 -0.716376,-8.040897 -0.757601,-8.431824 -0.07411,-0.702774 -0.07097,-0.711671 0.279125,-0.790172 1.75822,-0.394249 3.715417,-1.124429 4.94425,-1.844573 1.696926,-0.994464 3.566832,-2.711237 4.732836,-4.345244 1.149355,-1.610677 2.166845,-4.020156 2.568429,-6.082201 l 0.135742,-0.697001 0.77051,-0.214221 c 1.424747,-0.396115 2.668712,-1.146448 3.829704,-2.309995 1.092709,-1.095113 1.646805,-1.96166 2.131015,-3.332678 0.330624,-0.936145 0.445144,-3.009944 0.23501,-4.255754 -0.185075,-1.097247 -1.109967,-3.026941 -1.856394,-3.873175 l -0.494302,-0.560399 -1.378645,1.36774 c -0.758255,0.752257 -1.378647,1.411587 -1.378647,1.465178 0,0.05359 0.192335,0.390787 0.427412,0.749323 1.530311,2.33401 0.731975,5.237873 -1.779793,6.473808 -0.735815,0.362064 -0.934321,0.404344 -1.88326,0.401124 -1.301153,-0.0044 -2.032032,-0.308967 -3.240075,-1.350112 -0.445205,-0.383698 -0.893735,-0.698409 -0.996731,-0.699358 -0.201359,-0.0018 -7.483036,3.106091 -8.55197,3.65013 -0.698716,0.355614 -0.72632,0.404805 -0.850859,1.516265 -0.107459,0.959034 -0.427234,1.47049 -1.132992,1.812142 -1.066985,0.516519 -2.036007,0.119942 -2.595203,-1.0621 l -0.319767,-0.675935 -0.761698,-0.03705 -0.761699,-0.03705 2.101275,-1.096596 c 2.762727,-1.44179 2.63573,-1.338546 2.280112,-1.853695 -0.430189,-0.623174 -1.913639,-2.466761 -1.984565,-2.46636 -0.03425,2.5e-4 -1.033307,0.75669 -2.220134,1.681105 -1.54164,1.200775 -2.252904,1.680722 -2.49066,1.680653 -0.459903,-1.24e-4 -1.725271,-0.62814 -2.32532,-1.154058 -1.097663,-0.962058 -1.766741,-2.629292 -1.634596,-4.073147 0.151755,-1.658133 1.557071,-3.841602 3.651301,-5.673102 1.550626,-1.356094 3.137394,-2.485961 6.638339,-4.726867 5.098203,-3.263292 5.297597,-3.456127 5.667465,-5.481072 0.112596,-0.616437 0.337482,-1.415153 0.499746,-1.774923 0.419525,-0.930167 1.426551,-1.945019 2.41136,-2.430104 l 0.81754,-0.402693 4.081521,-0.03885 4.08152,-0.03885 v 1.502111 1.50211 h 2.054795 2.054794 v -3.92279 -3.9227889 h 0.447437 c 1.42127,0 4.753495,0.9784369 6.996242,2.0542979 4.459812,2.139402 7.917442,5.548072 10.106243,9.963136 1.65574,3.339824 2.286339,6.036108 2.286339,9.775841 0,3.739734 -0.630599,6.436018 -2.286339,9.77584 -1.358575,2.740403 -3.191356,5.075152 -5.516238,7.027042 -3.528725,2.962595 -8.257654,4.856648 -12.680992,5.079052 l -1.469752,0.0739 v 2.054059 2.054058 l 1.422596,-0.08505 c 4.09142,-0.244607 8.176043,-1.456922 11.759374,-3.490178 0.570981,-0.323987 1.064926,-0.562289 1.097655,-0.529562 0.03273,0.03273 -0.223753,0.934348 -0.569956,2.003598 -2.010698,6.21002 -3.195874,12.094614 -3.569803,17.724666 l -0.08478,1.276463 H 48.81258 36.760607 Z M 25.495551,36.699389 c 0.830616,-0.563263 1.335398,-0.985962 1.325781,-1.110198 -0.02121,-0.273944 -1.945996,-3.209176 -2.101531,-3.204756 -0.239424,0.0068 -2.739616,1.817015 -2.776887,2.010545 -0.04176,0.216861 1.912593,3.213986 2.095768,3.213986 0.06356,0 0.719149,-0.40931 1.456869,-0.909577 z M 43.417167,21.249784 c 1.603963,-0.966473 2.343199,-1.479984 2.331327,-1.619458 -0.02068,-0.242964 -0.946443,-1.886047 -1.342539,-2.382799 l -0.278548,-0.349333 -0.799693,0.540561 c -1.260102,0.851779 -3.850753,2.742818 -3.850753,2.810846 0,0.237818 1.344958,2.415405 1.491844,2.415405 0.05481,0 1.156572,-0.63685 2.448362,-1.415222 z"
   id="path18" /><path
   style="fill:#ffffff;stroke-width:0.124533"
   d="m 36.682412,73.443337 c -0.155755,-1.176251 -1.573373,-17.43573 -1.52444,-17.484665 0.029,-0.02899 0.561047,-0.188753 1.182339,-0.355022 1.62415,-0.434651 2.963993,-0.978319 4.113189,-1.669006 3.698789,-2.223037 6.156392,-5.629668 7.119059,-9.868153 l 0.272836,-1.201255 0.76597,-0.211585 c 2.648946,-0.731722 4.970179,-2.921921 5.953662,-5.617579 0.375784,-1.029993 0.410214,-3.998553 0.05835,-5.031091 -0.353652,-1.037797 -1.138577,-2.486344 -1.687018,-3.113325 l -0.490199,-0.560399 -1.262616,1.24533 c -0.694438,0.684932 -1.316222,1.342234 -1.38174,1.46067 -0.09036,0.163348 -0.01521,0.37382 0.311277,0.871732 1.5334,2.338517 0.737273,5.241248 -1.776799,6.478317 -0.735815,0.362064 -0.934321,0.404344 -1.88326,0.401124 -1.313118,-0.0045 -2.056453,-0.313226 -3.239158,-1.345493 -0.444702,-0.388136 -0.888609,-0.705702 -0.98646,-0.705702 -0.196089,0 -5.935173,2.435401 -7.936815,3.368016 -1.364,0.635523 -1.343977,0.611121 -1.477202,1.800104 -0.107458,0.959034 -0.427233,1.47049 -1.132992,1.812142 -1.066985,0.516519 -2.036006,0.119942 -2.595203,-1.0621 l -0.319767,-0.675935 -0.775539,-0.03705 -0.775539,-0.03705 2.022119,-1.040924 c 1.112165,-0.57251 2.162626,-1.151449 2.334359,-1.286534 l 0.31224,-0.245607 -0.276031,-0.394664 C 31.18896,38.339869 29.748535,36.55452 29.65704,36.520682 c -0.04425,-0.01637 -1.050707,0.726163 -2.236575,1.650063 -1.596807,1.244057 -2.246641,1.679815 -2.505061,1.679815 -0.525185,0 -2.043456,-0.812594 -2.535145,-1.356835 -1.546826,-1.712151 -1.837854,-3.638033 -0.857753,-5.676196 1.18922,-2.473034 3.681497,-4.739842 8.779839,-7.985552 4.753943,-3.026458 5.812885,-3.816036 6.249044,-4.659473 0.09329,-0.180403 0.261634,-0.828198 0.3741,-1.439544 0.112464,-0.611348 0.337242,-1.405898 0.499506,-1.765668 0.419529,-0.930172 1.426551,-1.94502 2.411368,-2.430103 l 0.817546,-0.402693 4.081514,-0.03744 4.081513,-0.03744 v 1.500706 1.500705 h 2.054795 2.054794 v -3.92279 -3.9227889 h 0.43145 c 0.741454,0 2.849323,0.4606029 4.257859,0.9304099 5.724655,1.909414 10.249596,5.811017 12.858341,11.087024 1.374506,2.779844 1.996625,4.991209 2.26849,8.063513 0.346504,3.915777 -0.404281,7.717937 -2.26849,11.488168 -1.352958,2.736264 -3.186588,5.073056 -5.513966,7.027042 -3.528725,2.962595 -8.257654,4.856648 -12.680991,5.079052 l -1.469753,0.0739 v 2.035784 2.035782 h 0.547204 c 0.813575,0 2.992886,-0.233189 4.092286,-0.437879 3.026743,-0.563527 5.92484,-1.615496 8.54248,-3.100798 0.570981,-0.323987 1.066723,-0.560493 1.101646,-0.525569 0.03493,0.03493 -0.136195,0.669459 -0.380263,1.410074 -2.055163,6.236272 -3.272879,12.028881 -3.706004,17.629265 l -0.151691,1.961395 H 48.80381 36.752498 Z M 25.240905,36.872135 c 0.603804,-0.405259 1.225959,-0.857664 1.382566,-1.005348 L 26.908214,35.598271 26.6309,35.140356 c -0.554701,-0.915953 -1.721591,-2.620868 -1.846722,-2.698205 -0.07059,-0.04363 -0.31009,0.04548 -0.532225,0.198009 -1.556637,1.068872 -2.334144,1.667166 -2.334144,1.796126 0,0.208004 1.97421,3.17268 2.112722,3.17268 0.0619,0 0.60657,-0.331573 1.210374,-0.736831 z m 18.11257,-15.588244 c 1.138931,-0.683796 2.160119,-1.341981 2.269307,-1.462632 0.183634,-0.202913 0.156457,-0.293848 -0.362353,-1.212445 -0.308483,-0.546195 -0.689609,-1.154528 -0.846949,-1.35185 l -0.286073,-0.35877 -0.799693,0.540561 c -1.260102,0.851779 -3.850753,2.742818 -3.850753,2.810846 0,0.114153 0.407249,0.853257 0.906045,1.64435 0.366118,0.580666 0.548078,0.76573 0.697509,0.709408 0.111196,-0.04191 1.134027,-0.63567 2.27296,-1.319468 z"
   id="path19" /><path
   style="fill:#ffffff;stroke-width:0.124533"
   d="M 36.680109,73.443337 C 36.527776,72.329554 35.106236,56.01041 35.157118,55.959529 c 0.02946,-0.02947 0.561901,-0.18961 1.183193,-0.355879 1.630278,-0.436291 2.964938,-0.978886 4.129529,-1.678825 3.717675,-2.234389 6.181001,-5.712411 7.158204,-10.106815 l 0.211611,-0.951604 0.58204,-0.156239 c 2.831675,-0.760112 5.31052,-3.088337 6.160456,-5.786132 0.231179,-0.733793 0.27323,-1.147609 0.265748,-2.615194 -0.0079,-1.54167 -0.04469,-1.83796 -0.318245,-2.559915 -0.391546,-1.033367 -1.095501,-2.276589 -1.653143,-2.919536 l -0.432038,-0.498133 -1.137777,1.120798 c -0.625777,0.616439 -1.243536,1.266322 -1.372798,1.444185 -0.234945,0.323282 -0.234885,0.323609 0.184372,0.996264 0.230668,0.370082 0.515448,1.005086 0.632846,1.411121 0.569344,1.969142 -0.451125,4.117425 -2.41483,5.083681 -0.735815,0.362064 -0.934321,0.404344 -1.88326,0.401124 -1.307302,-0.0044 -2.040731,-0.307891 -3.254127,-1.346383 -0.452934,-0.387646 -0.893155,-0.704812 -0.978271,-0.704812 -0.17456,0 -7.665483,3.201832 -8.606247,3.678554 -0.646241,0.327473 -0.665241,0.364268 -0.800647,1.550461 -0.102086,0.894302 -0.439205,1.415226 -1.133335,1.751247 -1.064834,0.515478 -2.025821,0.123757 -2.606111,-1.062315 L 28.743409,41.97889 27.976935,41.94212 27.210461,41.90535 29.35422,40.799259 c 1.179068,-0.60835 2.227721,-1.198867 2.330341,-1.31226 0.168645,-0.186352 0.09893,-0.319452 -0.725243,-1.384569 -1.430944,-1.849285 -1.036358,-1.858059 -3.543954,0.0788 -1.576689,1.217831 -2.25422,1.669324 -2.505061,1.669324 -0.18911,0 -0.741233,-0.198808 -1.226938,-0.441796 -1.05099,-0.525789 -1.760865,-1.269712 -2.311592,-2.422463 -0.343755,-0.71953 -0.38679,-0.933989 -0.387342,-1.930261 -6.25e-4,-1.05695 0.02841,-1.181098 0.509008,-2.179328 1.197846,-2.488003 3.646252,-4.751456 8.481089,-7.840423 5.23893,-3.347142 6.230207,-4.092394 6.596682,-4.959457 0.09504,-0.224865 0.258998,-0.869322 0.364344,-1.432128 0.105347,-0.562807 0.324949,-1.317642 0.488004,-1.677412 0.396272,-0.874347 1.387417,-1.897536 2.336941,-2.412492 l 0.774994,-0.420304 4.140721,-0.03737 4.140722,-0.03736 v 1.500627 1.500627 h 2.054795 2.054794 v -3.92279 -3.9227889 h 0.43145 c 0.767465,0 2.878893,0.4691458 4.399374,0.9775119 4.422251,1.478562 8.308112,4.345595 11.017501,8.128837 0.999775,1.396029 2.413745,4.198996 2.944814,5.837611 1.472771,4.544249 1.472771,9.154382 0,13.69863 -0.531069,1.638616 -1.945039,4.441582 -2.944814,5.837612 -0.98936,1.38149 -2.712424,3.233882 -3.944639,4.240717 -3.537487,2.890457 -8.254375,4.752498 -12.557483,4.957203 l -1.463263,0.06961 v 2.036471 2.036471 h 0.547204 c 0.907197,0 3.045974,-0.248589 4.42388,-0.514182 2.687686,-0.518059 5.620552,-1.5912 8.020285,-2.93464 0.67265,-0.376569 1.250209,-0.657463 1.283462,-0.624208 0.03325,0.03325 -0.274185,1.1174 -0.683198,2.409211 -1.976857,6.243614 -3.043532,11.621044 -3.448738,17.38611 l -0.08534,1.214197 H 48.809758 36.752497 Z M 25.323916,36.801117 c 0.570263,-0.37946 1.1566,-0.817406 1.302974,-0.973213 l 0.266132,-0.283287 -0.976635,-1.503157 c -0.53715,-0.826738 -1.040517,-1.542639 -1.118595,-1.590895 -0.07808,-0.04825 -0.323705,0.03706 -0.545839,0.189595 -1.540893,1.058062 -2.334144,1.666256 -2.334144,1.789607 0,0.07874 0.454929,0.829728 1.010954,1.668865 0.680326,1.026734 1.067753,1.50391 1.184633,1.45906 0.09552,-0.03666 0.640258,-0.377115 1.21052,-0.756575 z M 42.329675,21.896151 c 2.311858,-1.347456 3.373942,-2.074811 3.373845,-2.310539 -9.1e-5,-0.224455 -1.122419,-2.201536 -1.420779,-2.50283 -0.135432,-0.136763 -0.374407,-0.02131 -1.394941,0.673914 -1.070761,0.729442 -3.007307,2.140002 -3.334102,2.428524 -0.06124,0.05406 0.04125,0.363251 0.23103,0.696949 0.424516,0.74646 1.107322,1.782275 1.175085,1.782597 0.0279,1.25e-4 0.644335,-0.345745 1.369862,-0.768615 z"
   id="path20" /></svg>
